<svg width="26" height="21" viewBox="0 0 26 21" fill="none" xmlns="http://www.w3.org/2000/svg">
<path d="M16.9194 7.3494H21.3454V9.71886H16.9194V7.3494Z" fill="white"/>
<path d="M5.01807 11.1399H9.44404V13.5094H5.01807V11.1399Z" fill="white"/>
<path d="M5.01807 7.3494H9.44404V9.71886H5.01807V7.3494Z" fill="white"/>
<path d="M10.9194 8.29639H15.4438V12.5614H10.9194V8.29639Z" fill="white"/>
<path d="M16.9194 11.1399H21.3454V13.5094H16.9194V11.1399Z" fill="white"/>
<path d="M10.1817 5.92757C10.5891 5.92757 10.9194 6.24583 10.9194 6.63841V6.87535H12.4439V5.21673C12.4439 5.02817 12.5216 4.84738 12.66 4.71412L12.8761 4.50589H5.01807V5.92757H10.1817Z" fill="white"/>
<path d="M13.9189 5.51116V6.87535H15.4435V6.63841C15.4435 6.24583 15.7737 5.92757 16.1811 5.92757H21.3448V4.50589H14.9622L13.9189 5.51116Z" fill="white"/>
<path d="M16.1816 14.9312C15.7742 14.9312 15.4439 14.613 15.4439 14.2204V13.9835H13.9194V15.6421C13.9194 15.8306 13.8417 16.0114 13.7033 16.1447L13.4873 16.3529H21.3452V14.9312H16.1816Z" fill="white"/>
<path d="M12.4439 15.3477V13.9835H10.9194V14.2204C10.9194 14.613 10.5891 14.9312 10.1817 14.9312H5.01807V16.3529H11.4007L12.4439 15.3477Z" fill="white"/>
<path d="M22.083 0.240814H4.28062C2.24687 0.240814 0.592285 1.83523 0.592285 3.79502V17.0641C0.592285 19.0238 2.24687 20.6183 4.28062 20.6183H22.083C24.1167 20.6183 25.7713 19.0238 25.7713 17.0641V3.79502C25.7713 1.83523 24.1167 0.240814 22.083 0.240814ZM22.8206 17.0641C22.8206 17.4566 22.4904 17.7749 22.083 17.7749H4.28062C3.87323 17.7749 3.54295 17.4566 3.54295 17.0641V3.79502C3.54295 3.40245 3.87323 3.08418 4.28062 3.08418H22.083C22.4904 3.08418 22.8206 3.40245 22.8206 3.79502V17.0641Z" fill="white"/>
</svg>
