<svg width="41" height="40" viewBox="0 0 41 40" fill="none" xmlns="http://www.w3.org/2000/svg">
<path d="M25.4999 37.9167H15.4999C6.44992 37.9167 2.58325 34.05 2.58325 25V15C2.58325 5.95004 6.44992 2.08337 15.4999 2.08337H25.4999C34.5499 2.08337 38.4166 5.95004 38.4166 15V25C38.4166 34.05 34.5499 37.9167 25.4999 37.9167ZM15.4999 4.58337C7.81659 4.58337 5.08325 7.31671 5.08325 15V25C5.08325 32.6834 7.81659 35.4167 15.4999 35.4167H25.4999C33.1833 35.4167 35.9166 32.6834 35.9166 25V15C35.9166 7.31671 33.1833 4.58337 25.4999 4.58337H15.4999Z" fill="#808080"/>
<path d="M15.5001 17.9167C12.9667 17.9167 10.9167 15.8667 10.9167 13.3333C10.9167 10.8 12.9667 8.75 15.5001 8.75C18.0334 8.75 20.0834 10.8 20.0834 13.3333C20.0834 15.8667 18.0334 17.9167 15.5001 17.9167ZM15.5001 11.25C14.3501 11.25 13.4167 12.1833 13.4167 13.3333C13.4167 14.4833 14.3501 15.4167 15.5001 15.4167C16.6501 15.4167 17.5834 14.4833 17.5834 13.3333C17.5834 12.1833 16.6501 11.25 15.5001 11.25Z" fill="#808080"/>
<path d="M4.94995 32.8326C4.54995 32.8326 4.14995 32.6326 3.91661 32.2826C3.53328 31.716 3.68328 30.9326 4.26661 30.5493L12.4833 25.0326C14.2833 23.816 16.7666 23.966 18.3999 25.3493L18.9499 25.8326C19.7833 26.5493 21.1999 26.5493 22.0166 25.8326L28.9499 19.8826C30.7166 18.366 33.4999 18.366 35.2833 19.8826L37.9999 22.216C38.5166 22.666 38.5833 23.4493 38.1333 23.9826C37.6833 24.4993 36.8999 24.566 36.3666 24.116L33.6499 21.7826C32.8166 21.0659 31.3999 21.0659 30.5666 21.7826L23.6333 27.7326C21.8666 29.2493 19.0833 29.2493 17.2999 27.7326L16.7499 27.2493C15.9833 26.5993 14.7166 26.5326 13.8666 27.116L5.64995 32.6326C5.43328 32.7659 5.18328 32.8326 4.94995 32.8326Z" fill="#808080"/>
</svg>
