<svg width="8" height="8" viewBox="0 0 8 8" fill="none" xmlns="http://www.w3.org/2000/svg">
<path fill-rule="evenodd" clip-rule="evenodd" d="M4 0C2.91333 0 2.778 0.00466667 2.35067 0.0246667C0.897333 0.0913333 0.0906667 0.897333 0.024 2.35067C0.00466667 2.778 0 2.914 0 4C0 5.08667 0.00466667 5.22267 0.024 5.64933C0.0906667 7.102 0.897333 7.90933 2.35067 7.976C2.778 7.99533 2.91333 8 4 8C5.08667 8 5.22267 7.99533 5.65 7.976C7.10067 7.90933 7.91067 7.10333 7.976 5.64933C7.99533 5.22267 8 5.08667 8 4C8 2.914 7.99533 2.778 7.976 2.35067C7.91067 0.899333 7.10333 0.0906667 5.65 0.0246667C5.22267 0.00466667 5.08667 0 4 0ZM3.99998 0.721191C5.06798 0.721191 5.19464 0.725191 5.61664 0.744525C6.70131 0.793858 7.20664 1.30786 7.25664 2.38386C7.27531 2.80586 7.27931 2.93186 7.27931 3.99986C7.27931 5.06786 7.27531 5.19452 7.25664 5.61586C7.20664 6.69119 6.70198 7.20652 5.61664 7.25586C5.19464 7.27452 5.06864 7.27919 3.99998 7.27919C2.93198 7.27919 2.80531 7.27519 2.38398 7.25586C1.29731 7.20586 0.793975 6.68986 0.743975 5.61586C0.725309 5.19452 0.720642 5.06786 0.720642 3.99986C0.720642 2.93186 0.725309 2.80519 0.743975 2.38386C0.793309 1.30719 1.29864 0.793191 2.38398 0.743858C2.80531 0.724525 2.93198 0.721191 3.99998 0.721191ZM1.94598 3.9998C1.94598 2.86513 2.86598 1.9458 3.99998 1.9458C5.13398 1.9458 6.05398 2.8658 6.05398 3.9998C6.05398 5.13447 5.13398 6.0538 3.99998 6.0538C2.86598 6.0538 1.94598 5.13447 1.94598 3.9998ZM4.00002 5.33317C3.26335 5.33317 2.66669 4.7365 2.66669 3.99984C2.66669 3.26384 3.26335 2.6665 4.00002 2.6665C4.73602 2.6665 5.33402 3.26317 5.33402 3.99984C5.33402 4.7365 4.73602 5.33317 4.00002 5.33317ZM5.65466 1.86525C5.65466 1.59992 5.87 1.38525 6.13466 1.38525C6.40066 1.38525 6.61533 1.59992 6.61533 1.86525C6.61533 2.13059 6.4 2.34525 6.13466 2.34525C5.86933 2.34525 5.65466 2.12992 5.65466 1.86525Z" fill="white"/>
</svg>
