<svg width="35" height="34" viewBox="0 0 35 34" fill="none" xmlns="http://www.w3.org/2000/svg">
<path d="M24.7506 14.5283C26.5441 14.5283 28 12.9592 28 11.025C28 9.08959 26.5441 7.5205 24.7506 7.5205C22.9536 7.5205 21.5 9.08959 21.5 11.025C21.5 12.9592 22.9536 14.5283 24.7506 14.5283Z" fill="#7E8AB8"/>
<path d="M24.9031 0.0196809C24.3594 0.00013744 23.8111 0.0185313 23.2663 0.0783116C30.798 1.78665 30.6724 9.51325 29.625 12.4298C29.6193 12.4471 29.6124 12.4655 29.6067 12.4816C29.1498 13.7358 28.3994 15.0912 27.2275 15.8017C25.6489 16.7559 23.5815 16.2178 22.1755 15.2004C18.5295 12.5632 17.3542 6.93695 12.1993 6.37363C10.3615 6.1736 9 7.00018 9 7.00018C9 7.00018 13.9287 8.83612 17.5095 16.5869C20.164 22.335 19.6078 28.8349 18.9361 32.5482C22.5113 30.6306 26.1218 28.5441 28.9511 25.6148C31.8763 22.5867 34.0956 18.7056 34.8015 14.5129C35.9232 7.86009 32.2464 0.290991 24.9031 0.0196809Z" fill="#7E8AB8"/>
<path d="M11.9553 25.0115C10.7896 24.4441 9.84372 23.7888 8.5 22.5371C10.1637 25.5719 13.6119 27.8471 17.5 29.0443C17.5 27.8818 17.2336 27.3145 16.154 26.7008C14.8428 25.954 13.3083 25.6726 11.9553 25.0115Z" fill="#3A1700"/>
<path d="M9.5 21.536C11.1393 23.4322 13.6848 24.3641 16.5 25.0399C16.5 23.5817 14.8734 23.0835 13.8704 22.9716C11.6569 22.723 9.5 21.536 9.5 21.536Z" fill="#3A1700"/>
<path d="M11.8365 27.2489C9.74582 25.758 8.38765 24.3981 7.7279 21.8735C7.51405 21.0562 7.4458 20.0658 8.04299 19.4811C8.54804 18.9853 9.3477 18.99 10.0279 19.1572C10.7081 19.3256 11.3679 19.6296 12.0675 19.6343C12.7659 19.6389 13.8044 19.3209 13.8863 18.6053C12.2813 16.7975 10.0928 15.5463 7.75179 15.0973C7.17622 14.9862 6.61657 14.881 6.08081 14.7266C5.24361 14.4904 4.4667 14.1373 3.78079 13.4684C2.83894 12.5493 2.24517 11.3239 1.87662 10.0599C1.4057 8.44618 1.27602 6.70506 1.47622 5.01773C0.155591 7.67326 -0.30282 10.8947 0.197678 13.9303C0.900651 18.1948 3.11081 22.1425 6.02393 25.2225C9.21689 28.5995 13.412 30.875 17.4182 33.0488C18.0166 29.6753 15.2479 29.6753 11.8365 27.2489Z" fill="#3A1700"/>
<path d="M28.4071 4.24841C27.3247 2.27104 25.5145 0.984231 23.028 0.422797L22.1554 0.226296C20.3474 0.593473 18.6538 1.44685 17.4537 2.89423C15.6951 0.773132 12.8743 -0.0780011 10.1937 0.0196882C6.56874 0.152187 3.85564 2.08576 2.19121 4.80198L2.0869 5.65985C1.89287 7.25208 2.02521 8.87574 2.46936 10.3568C2.86528 11.6784 3.4642 12.7272 4.25156 13.475C4.75627 13.9545 5.3451 14.2835 6.13357 14.5283C5.92047 13.8893 5.74326 13.2403 5.62662 12.5767C5.28565 10.6678 5.45726 8.60401 6.47678 6.95452C7.60284 5.1321 9.75404 3.99464 11.894 4.09008C14.0318 4.18552 16.4947 5.47795 17.4537 7.39356C18.4127 5.47795 20.8757 4.18552 23.0134 4.09008C25.1534 3.99464 27.3046 5.1321 28.4306 6.95452C29.0363 7.93478 29.3414 9.06101 29.4199 10.2131C29.6285 8.47937 29.4759 6.20332 28.4071 4.24841Z" fill="#3A1700"/>
</svg>
