<svg width="60" height="16" viewBox="0 0 60 16" fill="none" xmlns="http://www.w3.org/2000/svg">
<path d="M0.6 15V4.12L0.2 2.1L0.6 0.84H3.4V3.24L3.2 7.02H4.8L8.02 0.84H11.2V2.04L7.24 7.66L10.6 11.82L12.58 13.8V15H8.88L5.24 9.3L3.4 9.5V12.6L3.6 13.8L3.4 15H0.6ZM17.2184 15.2C15.5918 15.2 14.3984 14.7733 13.6384 13.92C12.8784 13.0667 12.4984 11.8533 12.4984 10.28C12.4984 8.69333 12.8784 7.48 13.6384 6.64C14.3984 5.78667 15.5918 5.36 17.2184 5.36C18.8984 5.36 20.0984 5.78667 20.8184 6.64C21.5518 7.48 21.9184 8.69333 21.9184 10.28C21.9184 11.8533 21.5518 13.0667 20.8184 13.92C20.0984 14.7733 18.8984 15.2 17.2184 15.2ZM17.2184 13.2C17.7651 13.2 18.2118 12.9867 18.5584 12.56C18.9184 12.1333 19.0984 11.3733 19.0984 10.28C19.0984 9.18667 18.9184 8.42667 18.5584 8C18.2118 7.57333 17.7651 7.36 17.2184 7.36C16.6584 7.36 16.1984 7.57333 15.8384 8C15.4918 8.42667 15.3184 9.18667 15.3184 10.28C15.3184 11.3733 15.4984 12.1333 15.8584 12.56C16.2184 12.9867 16.6718 13.2 17.2184 13.2ZM22.8234 6.78L23.4434 5.56H25.6234V6.42L25.8034 6.54C25.9501 6.40667 26.1501 6.25333 26.4034 6.08C26.6701 5.89333 26.9901 5.72667 27.3634 5.58C27.7368 5.43333 28.1568 5.36 28.6234 5.36C30.0101 5.36 31.0034 5.82 31.6034 6.74C31.8301 6.40667 32.1834 6.09333 32.6634 5.8C33.1568 5.49333 33.8368 5.34 34.7034 5.34C35.9034 5.34 36.8034 5.68 37.4034 6.36C38.0034 7.04 38.3034 7.99333 38.3034 9.22V11.78L38.7234 13.78L38.3034 15H35.5234V9.14C35.5234 8.63333 35.3834 8.24667 35.1034 7.98C34.8368 7.7 34.4501 7.56 33.9434 7.56C33.4234 7.56 33.0034 7.70667 32.6834 8C32.3768 8.29333 32.2234 8.68 32.2234 9.16V9.24V15H29.4234V9.16C29.4234 8.65333 29.3101 8.26667 29.0834 8C28.8701 7.72 28.5301 7.58 28.0634 7.58L26.0234 7.96V15H23.2234V8.98L22.8234 6.78ZM44.0453 15.2C43.1786 15.2 42.4053 15.0467 41.7253 14.74C41.0453 14.4333 40.512 13.92 40.1253 13.2C39.7386 12.48 39.5453 11.5067 39.5453 10.28C39.5453 9.09333 39.752 8.14 40.1653 7.42C40.5786 6.7 41.1253 6.18 41.8053 5.86C42.4853 5.52667 43.232 5.36 44.0453 5.36C44.9386 5.36 45.6386 5.46 46.1453 5.66C46.6653 5.86 47.0586 6.05333 47.3253 6.24L48.3253 9.42L47.9253 10.66H42.3253C42.4053 11.3667 42.6586 11.9333 43.0853 12.36C43.512 12.7867 44.1653 13 45.0453 13C45.7653 13 46.3453 12.9133 46.7853 12.74C47.2386 12.5667 47.552 12.4333 47.7253 12.34V14.42C47.3253 14.6333 46.812 14.82 46.1853 14.98C45.572 15.1267 44.8586 15.2 44.0453 15.2ZM42.3053 9.38L45.3053 8.98L45.0053 7.5C44.912 7.44667 44.7786 7.40667 44.6053 7.38C44.4453 7.35333 44.2986 7.34 44.1653 7.34C43.5653 7.34 43.1053 7.55333 42.7853 7.98C42.4653 8.39333 42.3053 8.86 42.3053 9.38ZM49.4895 15V4.04L49.0695 2.04L49.4895 0.84H52.2895V4.04L52.0695 9.42H53.2895L54.8295 5.56H58.0895V6.76L55.8695 10L57.3495 11.8L59.2295 13.82V15H56.1695L53.9095 11.3L52.2895 11.5V15H49.4895Z" fill="#3A1700"/>
</svg>
