<svg width="8" height="7" viewBox="0 0 8 7" fill="none" xmlns="http://www.w3.org/2000/svg">
<path d="M8 0.77C7.706 0.900667 7.38933 0.988667 7.05733 1.02867C7.39667 0.825333 7.656 0.504 7.77933 0.120667C7.462 0.308667 7.11067 0.445333 6.73667 0.518667C6.438 0.199333 6.01067 0 5.53933 0C4.47933 0 3.70067 0.988667 3.94 2.01533C2.57667 1.94667 1.36667 1.29333 0.557333 0.300667C0.127333 1.038 0.334667 2.00333 1.06533 2.492C0.796667 2.48333 0.544 2.40933 0.322667 2.28667C0.304667 3.04667 0.85 3.758 1.63933 3.91667C1.40867 3.97933 1.15533 3.994 0.898 3.94467C1.10667 4.59667 1.714 5.07067 2.43133 5.084C1.74 5.62533 0.871333 5.86733 0 5.76467C0.726667 6.23067 1.58867 6.502 2.51533 6.502C5.56333 6.502 7.28467 3.928 7.18067 1.61933C7.502 1.38867 7.78 1.09933 8 0.77Z" fill="white"/>
</svg>
