<svg width="51" height="16" viewBox="0 0 51 16" fill="none" xmlns="http://www.w3.org/2000/svg">
<path d="M20.4648 1.11209L17.9312 15.4399H21.9834L24.5191 1.11209H20.4648Z" fill="white"/>
<path d="M14.5353 1.12838L10.5664 10.8995L10.1433 9.42416C9.36057 7.64649 7.13851 5.09348 4.52979 3.48454L8.15887 15.4331L12.4466 15.426L18.8283 1.12537L14.5353 1.12838Z" fill="white"/>
<path d="M8.60517 2.15267C8.36963 1.27991 7.68696 1.01978 6.83962 0.988647H0.556995L0.504883 1.27388C5.39403 2.41682 8.62914 5.17071 9.97155 8.48201L8.60517 2.15267Z" fill="white"/>
<path d="M32.7343 3.85819C34.06 3.8381 35.021 4.1173 35.7672 4.40655L36.133 4.57227L36.6812 1.46686C35.8787 1.17661 34.6207 0.865265 33.0511 0.865265C29.0469 0.865265 26.2245 2.80865 26.2026 5.59368C26.1766 7.65156 28.2131 8.80052 29.7514 9.48648C31.3304 10.1895 31.8599 10.6364 31.8526 11.2642C31.8401 12.2233 30.5936 12.6632 29.4294 12.6632C27.8066 12.6632 26.9447 12.4473 25.6137 11.913L25.0916 11.684L24.5215 14.8908C25.4699 15.2915 27.2198 15.636 29.0365 15.6541C33.2961 15.6541 36.0642 13.7338 36.0934 10.758C36.1111 9.12994 35.0303 7.88758 32.6884 6.86818C31.271 6.20331 30.4039 5.7614 30.4122 5.0905C30.4122 4.49493 31.148 3.85819 32.7343 3.85819Z" fill="white"/>
<path d="M47.0804 1.12735H43.9495C42.9771 1.12735 42.2538 1.38245 41.8264 2.31648L35.8096 15.4472H40.065C40.065 15.4472 40.7592 13.6816 40.9166 13.2949C41.3824 13.2949 45.517 13.3009 46.1059 13.3009C46.2268 13.8011 46.5999 15.4472 46.5999 15.4472H50.3593L47.0804 1.12735ZM42.0828 10.3622C42.4163 9.53967 43.6973 6.35793 43.6973 6.35793C43.6754 6.3971 44.0276 5.52936 44.2371 4.99003L44.5102 6.22536C44.5102 6.22536 45.2867 9.64613 45.4493 10.3622H42.0828Z" fill="white"/>
</svg>
